<svg width="210" height="200" viewBox="0 0 210 200" version="1.1" xmlns="http://www.w3.org/2000/svg" xmlns:xlink="http://www.w3.org/1999/xlink">
    <title>empty</title>
    <desc>Created using Figma</desc>
    <g id="Canvas" transform="translate(-21505 48)">
        <g id="empty">
            <g id="Group">
                <g id="Ellipse 11">
                    <use xlink:href="#path0_fill" transform="translate(21569 42)" fill="#E0E0E0"/>
                </g>
                <g id="Ellipse 11">
                    <use xlink:href="#path0_fill" transform="translate(21605.1 42)" fill="#E0E0E0"/>
                </g>
                <g id="Ellipse 11">
                    <use xlink:href="#path0_fill" transform="translate(21641.3 42)" fill="#E0E0E0"/>
                </g>
            </g>
            <g id="Ellipse 10">
                <mask id="mask0_outline_ins">
                    <use xlink:href="#path1_fill" fill="white" transform="translate(21515 -48)"/>
                </mask>
                <g mask="url(#mask0_outline_ins)">
                    <use xlink:href="#path2_stroke_2x" transform="translate(21515 -48)" fill="#E0E0E0"/>
                </g>
            </g>
            <g id="Ellipse 10">
                <use xlink:href="#path3_fill" transform="matrix(-1 0 0 1 21594 63)" fill="#FFFFFF"/>
                <mask id="mask1_outline_ins">
                    <use xlink:href="#path3_fill" fill="white" transform="matrix(-1 0 0 1 21594 63)"/>
                </mask>
                <g mask="url(#mask1_outline_ins)">
                    <use xlink:href="#path4_stroke_2x" transform="matrix(-1 0 0 1 21594 63)" fill="#E0E0E0"/>
                </g>
            </g>
        </g>
    </g>
    <defs>
        <path id="path0_fill" d="M 19.7143 10C 19.7143 15.5228 15.3011 20 9.85714 20C 4.41319 20 0 15.5228 0 10C 0 4.47715 4.41319 0 9.85714 0C 15.3011 0 19.7143 4.47715 19.7143 10Z"/>
        <path id="path1_fill" d="M 200 100C 200 121.294 193.344 141.033 182 157.251C 177.912 163.096 188 195.5 188 195.5C 188 195.5 154.339 184.429 146.5 188.554C 132.609 195.863 116.787 200 100 200C 44.7715 200 0 155.228 0 100C 0 44.7715 44.7715 0 100 0C 155.228 0 200 44.7715 200 100Z"/>
        <path id="path2_stroke_2x" d="M 188 195.5L 186.438 200.25L 195.66 203.283L 192.774 194.014L 188 195.5ZM 146.5 188.554L 144.172 184.129L 146.5 188.554ZM 182 157.251L 177.903 154.386L 182 157.251ZM 100 195C 47.533 195 5 152.467 5 100L -5 100C -5 157.99 42.0101 205 100 205L 100 195ZM 5 100C 5 47.533 47.533 5 100 5L 100 -5C 42.0101 -5 -5 42.0101 -5 100L 5 100ZM 100 5C 152.467 5 195 47.533 195 100L 205 100C 205 42.0101 157.99 -5 100 -5L 100 5ZM 188 195.5C 189.562 190.75 189.562 190.75 189.561 190.75C 189.561 190.75 189.56 190.749 189.559 190.749C 189.558 190.749 189.555 190.748 189.553 190.747C 189.548 190.746 189.54 190.743 189.531 190.74C 189.514 190.734 189.486 190.725 189.452 190.714C 189.385 190.693 189.283 190.659 189.154 190.618C 188.9 190.536 188.519 190.414 188.04 190.263C 187.092 189.965 185.708 189.536 184.041 189.041C 180.73 188.058 176.148 186.768 171.355 185.618C 166.569 184.472 161.312 183.415 156.826 182.928C 154.55 182.685 152.187 182.576 150.259 182.676C 148.319 182.783 146.091 183.119 144.172 184.129L 148.828 192.979C 148.503 193.208 149.495 192.72 150.809 192.661C 152.222 192.576 153.775 192.655 155.757 192.87C 159.787 193.299 164.415 194.237 169.024 195.342C 173.626 196.445 177.95 197.664 181.195 198.628C 182.806 199.106 184.113 199.511 185.037 199.801C 185.493 199.945 185.843 200.057 186.086 200.136C 186.206 200.174 186.293 200.203 186.355 200.223C 186.384 200.232 186.405 200.239 186.42 200.244C 186.427 200.246 186.432 200.248 186.435 200.249C 186.437 200.249 186.437 200.25 186.438 200.25C 186.438 200.25 186.438 200.25 186.438 200.25C 186.438 200.25 186.438 200.25 188 195.5ZM 144.172 184.129C 130.8 191.202 116.15 195.041 100 195L 100 205C 117.425 204.959 134.417 200.525 148.828 192.979L 144.172 184.129ZM 195 100C 195.066 120.484 188.882 138.779 177.903 154.386L 186.097 160.117C 197.807 143.288 204.934 122.103 205 100L 195 100ZM 177.903 154.386C 176.608 156.237 176.235 158.487 176.1 160.175C 175.97 161.903 176.038 164.087 176.236 166.172C 176.634 170.262 177.567 175.176 178.592 179.678C 179.619 184.185 180.784 188.541 181.675 191.702C 182.123 193.292 182.512 194.618 182.783 195.526C 182.92 195.985 183.031 196.351 183.106 196.595C 183.143 196.719 183.174 196.817 183.193 196.88C 183.203 196.913 183.212 196.94 183.217 196.956C 183.22 196.965 183.222 196.973 183.223 196.977C 183.224 196.98 183.225 196.982 183.225 196.983C 183.225 196.984 183.226 196.985 183.226 196.985C 183.226 196.986 183.226 196.986 188 195.5C 192.774 194.014 192.774 194.014 192.774 194.014C 192.774 194.014 192.774 194.014 192.774 194.014C 192.774 194.013 192.774 194.012 192.773 194.011C 192.772 194.008 192.771 194.003 192.769 193.996C 192.764 193.982 192.758 193.962 192.749 193.933C 192.731 193.874 192.705 193.79 192.67 193.675C 192.598 193.441 192.497 193.105 192.366 192.666C 192.101 191.78 191.734 190.528 191.3 188.989C 190.427 185.892 189.326 181.781 188.342 177.457C 187.355 173.128 186.533 168.845 186.19 165.215C 186.017 163.44 185.967 162.134 186.068 160.971C 186.164 159.768 186.37 159.727 186.097 160.117L 177.903 154.386Z"/>
        <path id="path3_fill" d="M 89 44.5C 89 53.9758 86.0383 62.7598 80.99 69.9769C 79.1707 72.5778 83.66 86.9975 83.66 86.9975C 83.66 86.9975 68.6808 82.071 65.1925 83.9065C 59.0108 87.1592 51.9704 89 44.5 89C 19.9233 89 0 69.0767 0 44.5C 0 19.9233 19.9233 0 44.5 0C 69.0767 0 89 19.9233 89 44.5Z"/>
        <path id="path4_stroke_2x" d="M 83.66 86.9975L 82.0979 91.7472L 91.3197 94.7802L 88.434 85.5112L 83.66 86.9975ZM 65.1925 83.9065L 67.5208 88.3313L 65.1925 83.9065ZM 80.99 69.9769L 76.8929 67.111L 80.99 69.9769ZM 44.5 84C 22.6848 84 5 66.3152 5 44.5L -5 44.5C -5 71.8381 17.1619 94 44.5 94L 44.5 84ZM 5 44.5C 5 22.6848 22.6848 5 44.5 5L 44.5 -5C 17.1619 -5 -5 17.1619 -5 44.5L 5 44.5ZM 44.5 5C 66.3152 5 84 22.6848 84 44.5L 94 44.5C 94 17.1619 71.8381 -5 44.5 -5L 44.5 5ZM 83.66 86.9975C 85.2221 82.2478 85.2217 82.2476 85.2211 82.2475C 85.2209 82.2474 85.2203 82.2472 85.2198 82.247C 85.219 82.2468 85.2175 82.2463 85.216 82.2458C 85.2137 82.245 85.2092 82.2436 85.2045 82.242C 85.1961 82.2393 85.1819 82.2346 85.1653 82.2292C 85.1345 82.2192 85.0849 82.2031 85.0247 82.1837C 84.9091 82.1464 84.7305 82.0893 84.5114 82.0203C 84.0831 81.8854 83.4451 81.6881 82.6883 81.4633C 81.1961 81.0203 79.086 80.4265 76.8999 79.9014C 74.7213 79.38 72.207 78.8773 70.0842 78.6438C 68.9897 78.5283 67.7135 78.4714 66.7125 78.5199C 65.6998 78.5757 64.2397 78.7579 62.8642 79.4817L 67.5208 88.3313C 67.0174 88.5962 66.7884 88.5309 67.2626 88.5048C 67.7485 88.4713 68.2148 88.4982 69.0151 88.5865C 70.682 88.7604 72.5666 89.1451 74.5688 89.6259C 76.5636 90.1031 78.4163 90.6262 79.8417 91.0496C 80.5437 91.2579 81.1032 91.4311 81.5078 91.5585C 81.7051 91.6206 81.8517 91.6676 81.9571 91.7015C 82.0075 91.7178 82.0425 91.7291 82.0685 91.7376C 82.0804 91.7415 82.0877 91.7439 82.0938 91.7459C 82.0962 91.7467 82.0973 91.747 82.0985 91.7474C 82.0988 91.7475 82.099 91.7476 82.0989 91.7475C 82.0988 91.7475 82.0986 91.7474 82.0985 91.7474C 82.0982 91.7473 82.0979 91.7472 83.66 86.9975ZM 62.8642 79.4817C 57.2025 82.4977 51.3328 84.0408 44.5 84L 44.5 94C 52.608 93.9592 60.8192 91.8208 67.5208 88.3313L 62.8642 79.4817ZM 84 44.5C 84.066 53.1664 81.5754 60.5052 76.8929 67.111L 85.0871 72.8428C 90.5011 65.0144 93.934 54.7852 94 44.5L 84 44.5ZM 76.8929 67.111C 75.8816 68.5567 75.669 70.1712 75.5982 71.057C 75.5323 71.9831 75.5676 73.1981 75.6626 74.2119C 75.8552 76.1599 76.3013 78.5215 76.7676 80.5727C 77.2368 82.6294 77.7732 84.636 78.1745 86.0601C 78.378 86.7821 78.557 87.3924 78.6795 87.8029C 78.7422 88.0127 78.794 88.1839 78.8279 88.2949C 78.8455 88.3526 78.8601 88.4 78.8692 88.4296C 78.8741 88.4454 78.8783 88.459 78.8808 88.467C 78.8822 88.4716 78.8835 88.4758 78.8842 88.4781C 78.8847 88.4794 78.8851 88.4809 78.8853 88.4816C 78.8855 88.4821 78.8857 88.4826 78.8857 88.4829C 78.8859 88.4834 78.886 88.4838 83.66 86.9975C 88.434 85.5112 88.4341 85.5115 88.4342 85.5118C 88.4342 85.5118 88.4342 85.512 88.4343 85.5121C 88.4343 85.5123 88.4342 85.512 88.4341 85.5117C 88.4338 85.5105 88.4334 85.5094 88.4327 85.507C 88.4309 85.5012 88.4287 85.494 88.4251 85.4825C 88.4174 85.4574 88.407 85.4235 88.3921 85.375C 88.3612 85.2735 88.3183 85.1323 88.2618 84.9428C 88.1459 84.5545 87.9884 84.018 87.7995 83.3475C 87.4158 81.9866 86.9436 80.2258 86.518 78.3524C 86.0893 76.4736 85.7542 74.7426 85.6167 73.2554C 85.5467 72.5515 85.5297 72.2133 85.5665 71.853C 85.5985 71.4524 85.6436 72.0473 85.0871 72.8428L 76.8929 67.111Z"/>
    </defs>
</svg>
