<svg width="14" height="15" viewBox="0 0 14 15" version="1.1" xmlns="http://www.w3.org/2000/svg" xmlns:xlink="http://www.w3.org/1999/xlink">
<title>Union</title>
<desc>Created using Figma</desc>
<g id="Canvas" transform="translate(-7817 104)">
<g id="Union">
<use xlink:href="#path0_fill" transform="translate(7817 -104)" fill="#2ACB6E"/>
</g>
</g>
<defs>
<path id="path0_fill" fill-rule="evenodd" d="M 10.6878 10.254C 12.8121 8.01754 12.935 4.51468 10.8683 2.13177C 8.65088 -0.424984 4.75237 -0.724194 2.1608 1.46349C -0.430777 3.65117 -0.734052 7.49729 1.48342 10.0541C 3.55008 12.437 7.07694 12.8589 9.64506 11.1342L 12.7924 14.7631C 13.0388 15.0472 13.472 15.0805 13.7599 14.8374C 14.0479 14.5943 14.0816 14.167 13.8352 13.8829L 10.6878 10.254ZM 9.82557 3.01203C 11.5503 5.00063 11.3144 7.99206 9.29871 9.69359C 7.28304 11.3951 4.25088 11.1624 2.52619 9.17381C 0.801493 7.18522 1.03737 4.19379 3.05304 2.49226C 5.06871 0.790733 8.10087 1.02343 9.82557 3.01203Z"/>
</defs>
</svg>
