<svg width="105" height="111" viewBox="0 0 105 111" version="1.1" xmlns="http://www.w3.org/2000/svg" xmlns:xlink="http://www.w3.org/1999/xlink">
<title>path32-2</title>
<desc>Created using Figma</desc>
<g id="Canvas" transform="translate(-18772 89)">
<g id="path32-2">
<use xlink:href="#path0_fill" transform="matrix(1.33333 0 0 -1.33333 18772 22)" fill="#FFFFFF"/>
</g>
</g>
<defs>
<path id="path0_fill" d="M 22.5628 83.25C 10.1529 83.25 -9.18879e-07 73.1062 -9.18879e-07 60.7087L -9.18879e-07 27.1152C -9.18879e-07 14.7176 10.1529 4.57384 22.5628 4.57384L 56.1877 4.57384C 58.6444 4.57384 61.6116 4.45443 62.5473 4.37877C 63.962 4.397 71.3626 3.73202 74.2285 0.235752C 75.604 -1.44196 78.1369 6.28209 76.3677 9.26606L 74.0657 13.5467C 76.9603 17.3374 78.75 22.0073 78.75 27.1152L 78.75 60.7087C 78.75 73.1062 68.5971 83.25 56.1877 83.25L 22.5628 83.25ZM 10.5412 32.4209L 10.5412 55.5274C 10.5412 65.0171 18.3127 72.7808 27.8115 72.7808L 50.939 72.7808C 60.4373 72.7808 68.2093 65.0171 68.2093 55.5274L 68.2093 33.4464C 68.207 33.1173 68.1956 32.5717 68.1536 31.8817C 68.1313 31.1698 68.0491 30.4738 67.941 29.7851C 67.8872 29.3881 67.6951 27.6936 67.0934 26.4917C 64.4186 27.4488 57.9815 25.3787 59.0303 24.8413C 62.9583 22.8291 67.4907 12.6662 67.4907 12.6662C 64.1668 15.1816 54.8022 15.1679 50.939 15.1679L 27.8115 15.1679C 18.3127 15.1679 10.5412 22.9312 10.5412 32.4209Z"/>
</defs>
</svg>
