<svg width="16" height="16" viewBox="0 0 16 16" version="1.1" xmlns="http://www.w3.org/2000/svg" xmlns:xlink="http://www.w3.org/1999/xlink">
    <title>Union</title>
    <desc>Created using Figma</desc>
    <g id="Canvas" transform="translate(-13193 93)">
        <g id="Union">
            <use xlink:href="#path0_fill" transform="translate(13193 -93)" fill="#FFFFFF"/>
            <use xlink:href="#path1_fill" transform="translate(13193 -93)" fill="#FFFFFF"/>
        </g>
    </g>
    <defs>
        <path id="path0_fill" d="M 4.19678 5.14768C 3.93457 4.88513 3.93457 4.45943 4.19678 4.19691C 4.45947 3.93437 4.88525 3.93436 5.14746 4.19691L 8 7.04922L 10.8525 4.19691C 11.1147 3.93437 11.5405 3.93436 11.8032 4.19691C 12.0654 4.45945 12.0654 4.88515 11.8032 5.14768L 8.95068 8L 11.8032 10.8523C 12.0654 11.1149 12.0654 11.5406 11.8032 11.8031C 11.5405 12.0656 11.1147 12.0656 10.8525 11.8031L 8 8.95078L 5.14746 11.8031C 4.88525 12.0656 4.45947 12.0656 4.19678 11.8031C 3.93457 11.5406 3.93457 11.1149 4.19678 10.8523L 7.04932 8L 4.19678 5.14768Z"/>
        <path id="path1_fill" fill-rule="evenodd" d="M 0 8C 0 3.58172 3.58154 0 8 0C 12.4185 0 16 3.58173 16 8C 16 12.4183 12.4185 16 8 16C 3.58154 16 0 12.4183 0 8ZM 1 8C 1 4.134 4.13379 1 8 1C 11.8662 1 15 4.13401 15 8C 15 11.866 11.8662 15 8 15C 4.13379 15 1 11.866 1 8Z"/>
    </defs>
</svg>
