<svg width="23" height="20" viewBox="0 0 23 20" version="1.1" xmlns="http://www.w3.org/2000/svg" xmlns:xlink="http://www.w3.org/1999/xlink">
    <title>Vector 8</title>
    <desc>Created using Figma</desc>
    <g id="Canvas" transform="translate(-11934 -1292)">
        <g id="Vector 8">
            <use xlink:href="#path0_stroke" transform="matrix(-1 0 0 1 11955 1293)" fill="#FFFFFF"/>
        </g>
    </g>
    <defs>
        <path id="path0_stroke" d="M 8.74741 0.664364C 9.11433 0.251581 9.07715 -0.380491 8.66436 -0.747409C 8.25158 -1.11433 7.61951 -1.07715 7.25259 -0.664364L 8.74741 0.664364ZM 0 9L -0.747409 8.33564L -1.33795 9L -0.747409 9.66436L 0 9ZM 7.25259 18.6644C 7.61951 19.0771 8.25158 19.1143 8.66436 18.7474C 9.07715 18.3805 9.11433 17.7484 8.74741 17.3356L 7.25259 18.6644ZM 20 10C 20.5523 10 21 9.55229 21 9C 21 8.44771 20.5523 8 20 8L 20 10ZM 7.25259 -0.664364L -0.747409 8.33564L 0.747409 9.66436L 8.74741 0.664364L 7.25259 -0.664364ZM -0.747409 9.66436L 7.25259 18.6644L 8.74741 17.3356L 0.747409 8.33564L -0.747409 9.66436ZM 0 10L 20 10L 20 8L 0 8L 0 10Z"/>
    </defs>
</svg>
