<svg width="160" height="137" viewBox="0 0 160 137" version="1.1" xmlns="http://www.w3.org/2000/svg" xmlns:xlink="http://www.w3.org/1999/xlink">
<title>Default-avatar</title>
<desc>Created using Figma</desc>
<g id="Canvas" transform="translate(-14454 56)">
<g id="Default-avatar">
<mask id="mask0_alpha" mask-type="alpha">
<g id="Ellipse 8">
<use xlink:href="#path0_fill" transform="translate(14454 -79)" fill="#E0E0E0"/>
</g>
</mask>
<g id="Union" mask="url(#mask0_alpha)">
<use xlink:href="#path1_fill" transform="translate(14432 -56)" fill="#E0E0E0"/>
</g>
</g>
</g>
<defs>
<path id="path0_fill" d="M 160 80C 160 124.183 124.183 160 80 160C 35.8172 160 0 124.183 0 80C 0 35.8172 35.8172 0 80 0C 124.183 0 160 35.8172 160 80Z"/>
<path id="path1_fill" fill-rule="evenodd" d="M 83.4355 10.7554C 66.1982 9.38315 64.8721 32.7108 66.1982 50.5499L 67.7969 50.5499C 67.6865 51.6545 67.6094 52.7725 67.5664 53.902L 64.4307 53.902C 63.8154 53.902 63.3457 54.4531 63.4434 55.061L 65.7734 69.5277C 65.8516 70.0123 66.2695 70.3687 66.7607 70.3687L 69.6221 70.3687C 73.3428 82.0829 81.751 90.2282 92.7178 95.234L 92.7178 106.811C 98.0215 110.928 105.978 110.928 111.281 106.811L 111.281 95.2344C 122.248 90.2287 130.657 82.0833 134.378 70.3687L 137.237 70.3687C 137.729 70.3687 138.146 70.0123 138.225 69.5277L 140.555 55.061C 140.652 54.4531 140.183 53.902 139.567 53.902L 136.434 53.902C 136.391 52.7725 136.313 51.6545 136.203 50.5499L 137.799 50.5499C 139.125 29.9664 136.473 8.01072 128.518 1.14958C 128.518 1.14958 130.813 9.30978 115.258 3.89406C 99.7021 -1.52166 92.7168 -2.96702 83.4355 10.7554ZM 119.237 106.811C 113.934 117.789 90.0664 117.789 84.7627 106.811L 68.8516 109.555C 68.2148 109.72 67.5938 109.924 66.9863 110.166C 64.3818 106.669 61.5771 104.066 58.1299 103.169L 47.2676 101.286C 43.6465 108.819 27.3535 108.819 23.7324 101.286L 12.8701 103.169C 9.24902 104.111 6.33691 106.936 3.62109 110.702C 0.905273 114.468 0 116.351 0 122L 54.2617 122C 51.0908 126.58 50 129.532 50 137L 154 137C 154 129.532 152.909 126.58 149.738 122L 204 122C 204 116.351 203.095 114.468 200.379 110.702C 197.663 106.936 194.751 104.111 191.13 103.169L 180.268 101.286C 176.646 108.819 160.354 108.819 156.732 101.286L 145.87 103.169C 142.423 104.066 139.618 106.669 137.014 110.166C 136.406 109.924 135.785 109.72 135.148 109.555L 119.237 106.811ZM 146.396 76.2822C 148.937 84.3196 154.677 89.9084 162.163 93.343L 162.163 101.287C 165.784 104.111 171.215 104.111 174.836 101.287L 174.836 93.3436C 182.323 89.909 188.064 84.3201 190.604 76.2822L 192.286 76.2822C 192.777 76.2822 193.196 75.9254 193.273 75.4404L 194.764 66.1421C 194.861 65.5344 194.392 64.9838 193.776 64.9838L 192.009 64.9838C 191.979 64.2089 191.926 63.4418 191.851 62.6839L 192.94 62.6839C 193.846 48.5609 192.035 33.4964 186.604 28.7888C 186.604 28.7888 188.172 34.3877 177.552 30.6719C 166.933 26.956 162.163 25.9642 155.827 35.3796C 144.06 34.4381 143.154 50.4439 144.06 62.6839L 145.15 62.6839C 145.075 63.4418 145.021 64.2089 144.992 64.9838L 143.224 64.9838C 142.608 64.9838 142.139 65.5344 142.236 66.1421L 143.727 75.4404C 143.804 75.9254 144.223 76.2822 144.714 76.2822L 146.396 76.2822ZM 29.1631 93.343C 21.6768 89.9084 15.9365 84.3196 13.3965 76.2822L 11.7139 76.2822C 11.2227 76.2822 10.8037 75.9254 10.7266 75.4404L 9.23633 66.1421C 9.13867 65.5344 9.6084 64.9838 10.2236 64.9838L 11.9922 64.9838C 12.0215 64.2089 12.0752 63.4418 12.1504 62.6839L 11.0596 62.6839C 10.1543 50.4439 11.0596 34.4381 22.8271 35.3796C 29.1631 25.9642 33.9326 26.956 44.5518 30.6719C 55.1719 34.3877 53.6045 28.7888 53.6045 28.7888C 59.0352 33.4964 60.8457 48.5609 59.9404 62.6839L 58.8506 62.6839C 58.9258 63.4418 58.9795 64.2089 59.0088 64.9838L 60.7764 64.9838C 61.3916 64.9838 61.8613 65.5344 61.7637 66.1421L 60.2734 75.4404C 60.1963 75.9254 59.7773 76.2822 59.2861 76.2822L 57.6045 76.2822C 55.0645 84.3201 49.3232 89.909 41.8359 93.3436L 41.8359 101.287C 38.2148 104.111 32.7842 104.111 29.1631 101.287L 29.1631 93.343Z"/>
</defs>
</svg>
