<svg width="4" height="18" viewBox="0 0 4 18" version="1.1" xmlns="http://www.w3.org/2000/svg" xmlns:xlink="http://www.w3.org/1999/xlink">
    <title>ic-ellipsis</title>
    <desc>Created using Figma</desc>
    <g id="Canvas" transform="translate(-12025 197)">
        <g id="ic-ellipsis">
            <use xlink:href="#path0_fill" transform="translate(12025 -197)" fill="#FFFFFF"/>
            <use xlink:href="#path1_fill" transform="translate(12025 -197)" fill="#FFFFFF"/>
            <use xlink:href="#path2_fill" transform="translate(12025 -197)" fill="#FFFFFF"/>
        </g>
    </g>
    <defs>
        <path id="path0_fill" d="M 4 2C 4 3.10457 3.10457 4 2 4C 0.895432 4 0 3.10457 0 2C 0 0.895432 0.895432 0 2 0C 3.10457 0 4 0.895432 4 2Z"/>
        <path id="path1_fill" d="M 4 9C 4 10.1046 3.10457 11 2 11C 0.895432 11 0 10.1046 0 9C 0 7.89543 0.895432 7 2 7C 3.10457 7 4 7.89543 4 9Z"/>
        <path id="path2_fill" d="M 2 18C 3.10457 18 4 17.1046 4 16C 4 14.8954 3.10457 14 2 14C 0.895432 14 0 14.8954 0 16C 0 17.1046 0.895432 18 2 18Z"/>
    </defs>
</svg>
