<svg width="170" height="170" viewBox="0 0 170 170" version="1.1" xmlns="http://www.w3.org/2000/svg" xmlns:xlink="http://www.w3.org/1999/xlink">
<title>ic_stranger</title>
<desc>Created using Figma</desc>
<g id="Canvas" transform="translate(-11809 -800)">
<g id="ic_stranger">
<g id="Ellipse 8">
<use xlink:href="#path0_fill" transform="translate(11814 805)" fill="#FFFFFF"/>
<mask id="mask0_outline_out">
<rect id="mask0_outline_inv" fill="white" x="-5" y="-5" width="170" height="170" transform="translate(11814 805)"/>
<use xlink:href="#path0_fill" fill="black" transform="translate(11814 805)"/>
</mask>
<g mask="url(#mask0_outline_out)">
<use xlink:href="#path1_stroke_2x" transform="translate(11814 805)" fill="#FFFFFF"/>
</g>
</g>
<g id="Default-avatar">
<mask id="mask1_alpha" mask-type="alpha">
<g id="Ellipse 8">
<use xlink:href="#path0_fill" transform="translate(11814 805)" fill="#E0E0E0"/>
</g>
</mask>
<g id="Union" mask="url(#mask1_alpha)">
<use xlink:href="#path2_fill" transform="translate(11842 828)" fill="#E0E0E0"/>
</g>
<g id="?" mask="url(#mask1_alpha)">
<use xlink:href="#path3_fill" transform="translate(11883 842)" fill="#FFFFFF"/>
</g>
</g>
</g>
</g>
<defs>
<path id="path0_fill" d="M 160 80C 160 124.183 124.183 160 80 160C 35.8172 160 0 124.183 0 80C 0 35.8172 35.8172 0 80 0C 124.183 0 160 35.8172 160 80Z"/>
<path id="path1_stroke_2x" d="M 155 80C 155 121.421 121.421 155 80 155L 80 165C 126.944 165 165 126.944 165 80L 155 80ZM 80 155C 38.5786 155 5 121.421 5 80L -5 80C -5 126.944 33.0558 165 80 165L 80 155ZM 5 80C 5 38.5786 38.5786 5 80 5L 80 -5C 33.0558 -5 -5 33.0558 -5 80L 5 80ZM 80 5C 121.421 5 155 38.5786 155 80L 165 80C 165 33.0558 126.944 -5 80 -5L 80 5Z"/>
<path id="path2_fill" fill-rule="evenodd" d="M 33.4355 10.7554C 16.1982 9.38313 14.8721 32.7108 16.1982 50.5499L 17.7969 50.5499C 17.6865 51.6546 17.6094 52.7724 17.5664 53.9019L 14.4307 53.9019C 13.8154 53.9019 13.3457 54.453 13.4434 55.0609L 15.7734 69.5277C 15.8516 70.0123 16.2695 70.3687 16.7607 70.3687L 19.6221 70.3687C 23.3428 82.0828 31.751 90.2282 42.7178 95.234L 42.7178 106.811C 48.0215 110.928 55.9775 110.928 61.2812 106.811L 61.2812 95.2344C 72.248 90.2287 80.6572 82.0832 84.3779 70.3687L 87.2373 70.3687C 87.7285 70.3687 88.1465 70.0123 88.2246 69.5277L 90.5547 55.0609C 90.6523 54.453 90.1826 53.9019 89.5674 53.9019L 86.4336 53.9019C 86.3906 52.7724 86.3135 51.6546 86.2031 50.5499L 87.7988 50.5499C 89.125 29.9664 86.4727 8.01075 78.5176 1.14961C 78.5176 1.14961 80.8135 9.30976 65.2578 3.89405C 49.7021 -1.52166 42.7168 -2.96703 33.4355 10.7554ZM 69.2373 106.811C 63.9336 117.789 40.0664 117.789 34.7627 106.811L 18.8516 109.555C 13.5479 110.928 9.28125 115.044 5.30371 120.533C 1.32617 126.022 0 128.767 0 137L 104 137C 104 128.767 102.674 126.022 98.6963 120.533C 94.7188 115.044 90.4521 110.928 85.1484 109.555L 69.2373 106.811Z"/>
<path id="path3_fill" d="M 6.46875 39.6328L 6.46875 37.8984C 6.46875 36.3984 6.78906 35.0937 7.42969 33.9844C 8.07031 32.875 9.24219 31.6953 10.9453 30.4453C 12.5859 29.2734 13.6641 28.3203 14.1797 27.5859C 14.7109 26.8516 14.9766 26.0312 14.9766 25.125C 14.9766 24.1094 14.6016 23.3359 13.8516 22.8047C 13.1016 22.2734 12.0547 22.0078 10.7109 22.0078C 8.36719 22.0078 5.69531 22.7734 2.69531 24.3047L 0.140625 19.1719C 3.625 17.2187 7.32031 16.2422 11.2266 16.2422C 14.4453 16.2422 17 17.0156 18.8906 18.5625C 20.7969 20.1094 21.75 22.1719 21.75 24.75C 21.75 26.4688 21.3594 27.9531 20.5781 29.2031C 19.7969 30.4531 18.3125 31.8594 16.125 33.4219C 14.625 34.5312 13.6719 35.375 13.2656 35.9531C 12.875 36.5313 12.6797 37.2891 12.6797 38.2266L 12.6797 39.6328L 6.46875 39.6328ZM 5.71875 47.6484C 5.71875 46.3359 6.07031 45.3438 6.77344 44.6719C 7.47656 44 8.5 43.6641 9.84375 43.6641C 11.1406 43.6641 12.1406 44.0078 12.8438 44.6953C 13.5625 45.3828 13.9219 46.3672 13.9219 47.6484C 13.9219 48.8828 13.5625 49.8594 12.8438 50.5781C 12.125 51.2812 11.125 51.6328 9.84375 51.6328C 8.53125 51.6328 7.51562 51.2891 6.79688 50.6016C 6.07813 49.8984 5.71875 48.9141 5.71875 47.6484Z"/>
</defs>
</svg>
